<?xml version="1.0" encoding="UTF-8"?>
<svg width="35px" height="35px" viewBox="0 0 35 35" version="1.1" xmlns="http://www.w3.org/2000/svg" xmlns:xlink="http://www.w3.org/1999/xlink">
    <!-- Generator: Sketch 55.2 (78181) - https://sketchapp.com -->
    <title>Icons/camera/active</title>
    <desc>Created with Sketch.</desc>
    <g id="Icons/camera/active" stroke="none" stroke-width="1" fill="none" fill-rule="evenodd">
        <circle id="Oval-Copy-3" fill="#040AB4" cx="17.5" cy="17.5" r="17.5"></circle>
        <g id="camera-white" transform="translate(7.000000, 10.000000)" fill="#FFFFFF">
            <g id="photo-camera">
                <path d="M18.9470099,3.37931034 L16.0212601,3.37931034 L14.6483133,0.16091954 L5.94588961,0.16091954 L4.57294275,3.37931034 L4.11884058,3.37931034 L4.11884058,1.77011494 L2.05942029,1.77011494 L2.05942029,3.37931034 L1.647193,3.37931034 C0.738645411,3.37931034 0,4.07190805 0,4.92381609 L0,14.3755862 C0,15.2332874 0.744137198,15.9310345 1.65886304,15.9310345 L18.9353399,15.9310345 C19.8500657,15.9310345 20.5942029,15.2332874 20.5942029,14.3755862 L20.5942029,4.92381609 C20.5942029,4.07190805 19.8555575,3.37931034 18.9470099,3.37931034 Z M2.74589372,2.4137931 L3.43236715,2.4137931 L3.43236715,3.37931034 L2.74589372,3.37931034 L2.74589372,2.4137931 Z M19.9077295,14.3755862 C19.9077295,14.8786207 19.4714756,15.2873563 18.9353399,15.2873563 L1.65886304,15.2873563 C1.12272729,15.2873563 0.68647343,14.8782989 0.68647343,14.3755862 L0.68647343,4.92381609 C0.68647343,4.42721839 1.11757874,4.02298851 1.647193,4.02298851 L2.05942029,4.02298851 L4.11884058,4.02298851 L5.03768527,4.02298851 L6.41063213,0.804597701 L14.1835708,0.804597701 L15.5565176,4.02298851 L18.9470099,4.02298851 C19.4766242,4.02298851 19.9077295,4.42721839 19.9077295,4.92381609 L19.9077295,14.3755862 Z" id="Shape" fill-rule="nonzero"></path>
                <path d="M10.2971014,3.05747126 C6.89047705,3.05747126 4.11884058,5.65632184 4.11884058,8.85057471 C4.11884058,12.0448276 6.89047705,14.6436782 10.2971014,14.6436782 C13.7037258,14.6436782 16.4753623,12.0448276 16.4753623,8.85057471 C16.4753623,5.65632184 13.7037258,3.05747126 10.2971014,3.05747126 Z M10.2971014,14 C7.26906715,14 4.80531401,11.6898391 4.80531401,8.85057471 C4.80531401,6.01131034 7.26906715,3.70114943 10.2971014,3.70114943 C13.3251357,3.70114943 15.7888889,6.01131034 15.7888889,8.85057471 C15.7888889,11.6898391 13.3251357,14 10.2971014,14 Z" id="Shape" fill-rule="nonzero"></path>
                <path d="M10.2971014,4.98850575 C8.02590411,4.98850575 6.17826087,6.72096552 6.17826087,8.85057471 C6.17826087,10.9801839 8.02590411,12.7126437 10.2971014,12.7126437 C12.5682988,12.7126437 14.415942,10.9801839 14.415942,8.85057471 C14.415942,6.72096552 12.5682988,4.98850575 10.2971014,4.98850575 Z M10.2971014,12.0689655 C8.4044942,12.0689655 6.8647343,10.6251954 6.8647343,8.85057471 C6.8647343,7.07595402 8.4044942,5.63218391 10.2971014,5.63218391 C12.1897087,5.63218391 13.7294686,7.07595402 13.7294686,8.85057471 C13.7294686,10.6251954 12.1897087,12.0689655 10.2971014,12.0689655 Z" id="Shape" fill-rule="nonzero"></path>
                <path d="M17.8483092,4.66666667 C17.091129,4.66666667 16.4753623,5.24404598 16.4753623,5.95402299 C16.4753623,6.664 17.091129,7.24137931 17.8483092,7.24137931 C18.6054894,7.24137931 19.221256,6.664 19.221256,5.95402299 C19.221256,5.24404598 18.6054894,4.66666667 17.8483092,4.66666667 Z M17.8483092,6.59770115 C17.4697191,6.59770115 17.1618357,6.30901149 17.1618357,5.95402299 C17.1618357,5.59903448 17.4697191,5.31034483 17.8483092,5.31034483 C18.2268993,5.31034483 18.5347826,5.59903448 18.5347826,5.95402299 C18.5347826,6.30901149 18.2268993,6.59770115 17.8483092,6.59770115 Z" id="Shape" fill-rule="nonzero"></path>
            </g>
        </g>
    </g>
</svg>